<svg width="545" height="112" viewBox="0 0 545 112" fill="none" xmlns="http://www.w3.org/2000/svg">
<path d="M527.067 78.0109C526.268 78.0109 525.614 77.7204 525.106 77.1394C524.597 76.5584 524.343 75.5055 524.343 73.9804C524.343 71.8744 524.743 69.369 525.542 66.4642C526.413 63.4868 527.43 60.4367 528.592 57.3141C529.826 54.1188 531.024 51.105 532.186 48.2728C533.421 45.4407 534.438 43.0442 535.236 41.0834C536.108 39.0501 536.544 37.7792 536.544 37.2709C536.544 37.1256 536.507 37.053 536.435 37.053C536.144 37.053 535.49 37.5977 534.474 38.687C530.334 43.3347 526.994 47.5103 524.452 51.214C521.983 54.9176 520.022 58.1855 518.57 61.0177C517.19 63.8499 516.065 66.2101 515.193 68.0982C514.394 69.9137 513.559 71.2935 512.688 72.2375C511.889 73.1816 510.8 73.6536 509.42 73.6536C508.766 73.6536 508.439 73.2905 508.439 72.5643C508.439 71.9107 508.621 71.1845 508.984 70.3857C512.325 61.8165 515.193 53.5378 517.59 45.5496C519.986 37.4887 522.637 29.1011 525.542 20.3866C525.687 19.8783 525.759 19.4789 525.759 19.1884C525.832 18.8979 525.868 18.6438 525.868 18.4259C525.868 18.0628 525.832 17.8086 525.759 17.6634C525.687 17.5181 525.65 17.3003 525.65 17.0098C525.65 16.7193 525.759 16.2473 525.977 15.5937C527.067 12.6163 528.011 10.2924 528.809 8.62215C529.608 6.95189 530.516 5.78996 531.533 5.13638C532.549 4.4828 533.893 4.15601 535.563 4.15601C536.58 4.15601 537.124 4.4828 537.197 5.13638C533.203 13.2699 529.536 21.839 526.195 30.844C522.855 39.7763 520.095 48.2002 517.916 56.1158C518.715 54.8813 519.805 53.211 521.184 51.105C522.564 48.999 524.125 46.7841 525.868 44.4603C527.684 42.1364 529.536 39.9215 531.424 37.8155C533.385 35.7095 535.309 34.0029 537.197 32.6958C539.085 31.3886 540.828 30.735 542.426 30.735C543.951 30.735 544.713 31.2434 544.713 32.2601C544.713 32.9136 544.459 33.6399 543.951 34.4387C542.353 37.053 540.61 40.1031 538.722 43.5888C536.907 47.0746 535.164 50.6693 533.493 54.3729C531.896 58.0766 530.552 61.5987 529.463 64.9392C528.446 68.2797 527.938 71.1482 527.938 73.5447C527.938 74.5614 528.228 75.0697 528.809 75.0697C529.173 75.0697 529.826 74.7429 530.77 74.0894C531.714 73.4358 532.332 73.109 532.622 73.109C532.985 73.109 533.167 73.3268 533.167 73.7626C533.167 74.634 532.477 75.5418 531.097 76.4858C529.79 77.5025 528.446 78.0109 527.067 78.0109Z" fill="white"/>
<path d="M487.42 65.9195C485.386 65.9195 483.897 65.3385 482.953 64.1766C482.082 62.942 481.646 61.0902 481.646 58.6211C481.646 55.5711 482.155 52.4847 483.171 49.362C484.261 46.1668 485.677 43.2619 487.42 40.6476C489.162 37.9607 491.087 35.8184 493.193 34.2207C495.371 32.6231 497.55 31.8242 499.729 31.8242C500.019 31.8242 500.273 31.8606 500.491 31.9332C500.782 31.9332 501.072 31.9695 501.363 32.0421C501.363 31.0254 501.508 30.1177 501.798 29.3188C502.161 28.52 502.96 28.1206 504.195 28.1206C505.502 28.1206 506.337 28.5926 506.7 29.5367C507.136 30.4081 507.354 31.6064 507.354 33.1314C507.354 33.9302 507.318 34.8017 507.245 35.7457C507.172 36.6898 507.136 37.5976 507.136 38.469C507.354 38.6142 507.79 38.941 508.443 39.4494C509.097 39.8851 509.424 40.3934 509.424 40.9744C509.424 41.1923 509.387 41.3738 509.315 41.5191C509.169 41.7369 508.951 41.8822 508.661 41.9548C508.371 41.9548 508.08 41.9548 507.79 41.9548H506.809C506.664 42.6084 506.482 43.5524 506.265 44.787C506.047 45.9489 505.829 47.1108 505.611 48.2727C505.466 49.362 505.284 50.1246 505.066 50.5603C503.251 55.208 500.709 58.9479 497.441 61.7801C494.173 64.5397 490.833 65.9195 487.42 65.9195ZM488.945 62.7605C490.107 62.7605 491.45 62.2522 492.975 61.2355C494.573 60.1462 496.098 58.6574 497.55 56.7693C499.075 54.8086 500.31 52.5573 501.254 50.0156C502.27 47.4013 502.779 44.5691 502.779 41.5191C502.125 41.3738 501.726 40.9744 501.581 40.3208C501.435 39.5946 501.326 38.8321 501.254 38.0333C501.254 37.1618 501.181 36.4356 501.036 35.8547C500.891 35.2011 500.491 34.8743 499.838 34.8743C498.53 34.8743 497.296 35.3826 496.134 36.3993C494.972 37.3434 493.919 38.5779 492.975 40.103C492.031 41.5554 491.196 43.0078 490.47 44.4602C489.816 45.84 489.308 46.9656 488.945 47.837C488.364 49.4347 487.746 51.3591 487.093 53.6103C486.512 55.7889 486.221 57.7134 486.221 59.3837C486.221 61.6349 487.129 62.7605 488.945 62.7605ZM475.655 111.126C473.404 111.126 471.516 110.726 469.991 109.927C468.466 109.129 467.703 107.604 467.703 105.352C467.703 103.174 468.284 100.559 469.446 97.5093C470.535 94.4593 471.879 91.3729 473.476 88.2502C475.074 85.2002 476.672 82.4406 478.269 79.9715C479.867 77.5024 481.102 75.7595 481.973 74.7428C482.118 74.5976 482.372 74.416 482.736 74.1982C483.171 73.9803 483.643 73.7988 484.152 73.6535C483.208 73.0726 482.227 72.5642 481.211 72.1285C480.266 71.6928 479.794 71.1481 479.794 70.4946C479.794 69.6957 480.121 68.9695 480.775 68.3159C481.501 67.5897 482.227 67.2266 482.953 67.2266H483.389C485.568 68.0255 487.746 69.4052 489.925 71.366C492.104 73.3267 494.064 75.578 495.807 78.1197C497.623 80.734 499.075 83.421 500.164 86.1805C501.254 89.0127 501.798 91.6634 501.798 94.1325C501.798 94.4956 501.798 94.8587 501.798 95.2218C501.798 95.5849 501.762 95.948 501.689 96.3111C501.399 98.2718 500.346 100.124 498.53 101.867C496.715 103.609 494.464 105.171 491.777 106.551C489.162 108.003 486.403 109.129 483.498 109.927C480.666 110.726 478.052 111.126 475.655 111.126ZM475.873 108.402C477.688 108.402 479.758 108.039 482.082 107.313C484.406 106.659 486.657 105.788 488.836 104.699C491.087 103.609 492.939 102.447 494.391 101.213C495.843 99.9784 496.57 98.8165 496.57 97.7272V96.3111C496.57 93.5515 496.061 90.8282 495.045 88.1413C494.028 85.527 492.721 83.0942 491.123 80.8429C489.526 78.5917 487.819 76.7036 486.003 75.1786C485.277 76.3405 484.079 78.0834 482.409 80.4072C480.738 82.7311 478.996 85.3454 477.18 88.2502C475.437 91.155 473.948 93.9872 472.714 96.7468C471.407 99.5064 470.753 101.903 470.753 103.936C470.753 106.914 472.46 108.402 475.873 108.402Z" fill="white"/>
<path d="M462.783 76.7037C461.766 76.7037 460.968 76.3406 460.387 75.6143C459.878 74.9608 459.624 73.7625 459.624 72.0196C459.624 69.6232 460.024 66.9362 460.822 63.9588C461.694 60.9814 462.711 57.9313 463.872 54.8086C465.107 51.686 466.342 48.7085 467.576 45.8763C468.811 43.0441 469.791 40.6477 470.517 38.6869C470.88 37.7429 471.062 37.0167 471.062 36.5083C471.062 36.1452 470.953 35.9637 470.735 35.9637C470.372 35.9637 469.573 36.6172 468.339 37.9244C467.322 39.0863 465.906 40.8292 464.09 43.1531C462.347 45.4043 460.459 47.9823 458.426 50.8871C456.393 53.7193 454.432 56.5515 452.544 59.3837C450.656 62.1433 449.094 64.6124 447.86 66.791C446.698 68.9696 446.08 70.4946 446.008 71.3661C446.008 71.6565 445.681 72.0923 445.027 72.6732C444.374 73.2542 443.611 73.7625 442.74 74.1982C441.941 74.634 441.251 74.8518 440.67 74.8518C440.162 74.8518 439.871 74.5977 439.799 74.0893C439.871 74.1619 440.198 73.472 440.779 72.0196C441.36 70.4946 442.05 68.5339 442.849 66.1374C443.72 63.7409 444.592 61.2718 445.463 58.7301C446.335 56.1158 447.133 53.7556 447.86 51.6496C448.586 49.471 449.094 47.9097 449.385 46.9656C449.675 46.0942 449.82 45.4406 449.82 45.0049C449.82 44.6418 449.748 44.3876 449.603 44.2424C449.53 44.0971 449.494 43.8793 449.494 43.5888C449.494 43.2983 449.603 42.8263 449.82 42.1727C450.91 39.1953 451.854 36.8714 452.653 35.2011C453.451 33.5309 454.359 32.369 455.376 31.7154C456.393 31.0618 457.736 30.735 459.406 30.735C460.423 30.735 460.968 31.0618 461.04 31.7154C460.532 32.8047 459.769 34.366 458.753 36.3994C457.809 38.4327 456.756 40.7203 455.594 43.262C454.504 45.8037 453.451 48.3454 452.435 50.8871C451.491 53.4288 450.801 55.7527 450.365 57.8587C451.237 56.4063 452.435 54.5181 453.96 52.1943C455.557 49.7978 457.337 47.2561 459.297 44.5692C461.331 41.8822 463.4 39.3768 465.506 37.053C467.685 34.6565 469.827 32.6957 471.933 31.1707C474.112 29.6457 476.109 28.8832 477.924 28.8832C478.505 28.8832 479.014 28.9921 479.449 29.21C479.885 29.3552 480.103 29.7183 480.103 30.2993C480.103 30.9529 479.849 31.6791 479.341 32.4779C477.598 35.3101 475.818 38.5417 474.003 42.1727C472.26 45.8037 470.626 49.471 469.101 53.1747C467.649 56.8783 466.45 60.3641 465.506 63.632C464.635 66.8999 464.199 69.5869 464.199 71.6928C464.199 73 464.49 73.6536 465.071 73.6536C465.289 73.6536 465.688 73.472 466.269 73.1089C466.85 72.7458 467.431 72.3827 468.012 72.0196C468.665 71.6565 469.101 71.475 469.319 71.475C469.755 71.475 469.973 71.6928 469.973 72.1286C469.973 72.7095 469.573 73.3631 468.774 74.0893C468.048 74.8155 467.14 75.4328 466.051 75.9411C464.962 76.4495 463.872 76.7037 462.783 76.7037Z" fill="white"/>
<path d="M441.872 24.0902C440.855 24.0902 440.238 23.7271 440.02 23.0009C439.802 22.2021 439.693 21.367 439.693 20.4955C439.693 19.4062 440.238 18.2806 441.327 17.1187C442.416 15.8842 443.687 14.8675 445.139 14.0686C446.664 13.1972 447.935 12.7615 448.952 12.7615C449.315 12.7615 449.533 12.8704 449.606 13.0883C449.606 13.8871 449.279 14.6496 448.625 15.3758C448.044 16.102 447.391 16.8282 446.664 17.5544C445.938 18.2806 445.357 19.1158 444.922 20.0598C444.631 20.786 444.268 21.5848 443.832 22.4563C443.397 23.3277 442.743 23.8724 441.872 24.0902ZM425.859 73.6536C424.479 73.6536 423.789 73 423.789 71.6929C423.789 71.0393 423.934 70.2768 424.225 69.4053C425.822 64.8302 427.13 61.0903 428.146 58.1855C429.163 55.208 429.962 52.8842 430.543 51.2139C431.124 49.471 431.523 48.1639 431.741 47.2924C431.959 46.3484 432.068 45.5859 432.068 45.0049C432.068 44.6418 431.995 44.3876 431.85 44.2424C431.777 44.0971 431.741 43.8793 431.741 43.5888C431.741 43.2983 431.85 42.8263 432.068 42.1727C433.593 37.7429 434.973 34.7291 436.207 33.1315C437.442 31.5338 439.293 30.735 441.763 30.735C442.779 30.735 443.324 31.0618 443.397 31.7154C442.67 33.0952 441.472 35.3464 439.802 38.4691C438.204 41.5917 436.498 45.4769 434.682 50.1246C432.867 54.6997 431.269 59.9647 429.889 65.9195C429.817 66.1374 429.78 66.4279 429.78 66.791C429.78 67.6624 430.143 68.0981 430.87 68.0981C431.305 68.0981 431.995 67.844 432.939 67.3356C433.883 66.7547 434.864 66.21 435.88 65.7017C436.897 65.1207 437.66 64.8302 438.168 64.8302C438.676 64.8302 438.967 64.9755 439.039 65.266C439.039 65.7017 438.495 66.3916 437.405 67.3356C436.316 68.2071 435.009 69.1511 433.484 70.1678C431.959 71.1119 430.47 71.947 429.018 72.6732C427.638 73.3268 426.585 73.6536 425.859 73.6536Z" fill="white"/>
<path d="M386.785 74.8518C383.372 74.8518 380.794 74.4524 379.051 73.6536C377.381 72.8548 376.255 71.8744 375.674 70.7125C375.093 69.4779 374.803 68.2797 374.803 67.1178V66.3553C374.803 65.7743 374.984 65.0118 375.347 64.0677C375.71 63.051 376.509 62.5427 377.744 62.5427C378.325 62.5427 378.652 63.0147 378.724 63.9588C378.797 64.8302 379.124 65.7743 379.705 66.791C380.867 68.6791 382.355 69.9137 384.171 70.4946C385.986 71.0756 388.274 71.3661 391.033 71.3661C393.43 71.3661 395.972 70.9667 398.659 70.1678C401.418 69.369 403.996 68.2434 406.393 66.791C408.789 65.3386 410.713 63.5957 412.166 61.5623C413.691 59.529 414.453 57.2414 414.453 54.6997C414.453 52.3759 413.618 50.4514 411.948 48.9264C410.35 47.4014 408.244 46.0579 405.63 44.896C403.016 43.734 400.256 42.6447 397.351 41.6281C394.519 40.5388 391.796 39.2679 389.182 37.8155C386.567 36.3631 384.425 34.5839 382.755 32.4779C381.157 30.3719 380.358 27.7213 380.358 24.526C380.358 21.4033 381.23 18.4259 382.973 15.5937C384.788 12.7615 387.221 10.2561 390.271 8.07748C393.394 5.82625 396.879 4.08336 400.728 2.84881C404.65 1.54164 408.716 0.888062 412.928 0.888062C416.051 0.888062 418.375 1.46903 419.9 2.63095C421.425 3.72026 422.442 5.10004 422.95 6.77031C423.531 8.36796 423.821 10.0019 423.821 11.6722C423.821 12.0353 423.713 12.6526 423.495 13.524C423.277 14.3954 422.914 15.1943 422.405 15.9205C421.97 16.574 421.425 16.9008 420.771 16.9008C420.263 16.9008 420.009 16.4288 420.009 15.4847V13.3061C420.009 9.9656 418.992 7.75068 416.959 6.66138C414.998 5.49946 412.529 4.9185 409.552 4.9185C407.591 4.9185 405.194 5.2816 402.362 6.0078C399.603 6.66138 396.879 7.71438 394.192 9.16678C391.505 10.5466 389.254 12.2531 387.439 14.2865C385.696 16.3199 384.824 18.7163 384.824 21.4759C384.824 21.6212 384.824 21.8027 384.824 22.0206C384.897 22.1658 384.933 22.3111 384.933 22.4563C385.296 25.5063 386.386 28.0481 388.201 30.0814C390.089 32.0422 392.377 33.6761 395.064 34.9833C397.751 36.2905 400.547 37.4524 403.451 38.4691C406.429 39.4858 409.188 40.5388 411.73 41.6281C414.272 42.7174 416.342 44.0245 417.939 45.5495C419.537 47.002 420.336 48.9264 420.336 51.3229C420.336 54.1551 419.428 56.9872 417.612 59.8194C415.797 62.579 413.328 65.1207 410.205 67.4446C407.082 69.6958 403.488 71.5113 399.421 72.8911C395.427 74.1983 391.215 74.8518 386.785 74.8518Z" fill="white"/>
<path d="M330.99 79.8626C330.046 79.8626 329.574 79.4632 329.574 78.6644C329.574 77.9382 330.119 77.1756 331.208 76.3768C332.297 75.6506 333.096 74.7066 333.604 73.5446C333.822 72.9637 334.258 71.5839 334.912 69.4053C335.565 67.154 336.291 64.6123 337.09 61.7801C337.962 58.8753 338.724 56.1158 339.378 53.5014C340.104 50.8871 340.649 48.89 341.012 47.5103C340.213 48.7448 338.978 50.4514 337.308 52.63C335.71 54.736 333.895 57.0235 331.861 59.4926C329.828 61.8891 327.722 64.2129 325.544 66.4641C323.438 68.6428 321.44 70.4583 319.552 71.9107C317.664 73.2905 316.067 73.9804 314.759 73.9804C313.743 73.9804 313.234 73.3268 313.234 72.0196C313.234 70.9303 313.634 69.369 314.433 67.3356C314.868 66.3189 315.522 64.8302 316.393 62.8694C317.337 60.9087 318.281 58.8027 319.226 56.5515C320.242 54.2276 321.077 52.0853 321.731 50.1246C322.457 48.0912 322.82 46.5299 322.82 45.4406C322.82 44.9322 322.748 44.6054 322.602 44.4602C322.457 44.2423 322.385 43.9519 322.385 43.5888C322.385 43.4435 322.385 43.2983 322.385 43.153C322.457 42.9352 322.53 42.681 322.602 42.3905C323.401 39.4131 324.127 37.0892 324.781 35.419C325.507 33.7487 326.379 32.5868 327.395 31.9332C328.412 31.2796 329.792 30.9528 331.535 30.9528C332.551 30.9528 333.169 31.2796 333.387 31.9332C333.096 32.6594 332.479 34.1844 331.535 36.5083C330.591 38.7595 329.465 41.4465 328.158 44.5691C326.923 47.6192 325.689 50.6692 324.454 53.7193C323.292 56.6967 322.312 59.311 321.513 61.5623C320.714 63.7409 320.315 65.0844 320.315 65.5927C320.315 65.8832 320.424 66.0284 320.642 66.0284C320.932 66.0284 321.295 65.8469 321.731 65.4838C322.239 65.1207 322.748 64.7213 323.256 64.2855C327.541 61.0176 331.244 57.3503 334.367 53.2836C337.49 49.1442 340.177 44.9685 342.428 40.7566C342.5 39.6673 342.755 38.2875 343.19 36.6172C343.699 34.9469 344.534 33.4582 345.696 32.1511C346.858 30.8439 348.383 30.1903 350.271 30.1903C351.07 30.1903 351.505 30.5171 351.578 31.1707C351.215 32.3326 350.452 34.4023 349.29 37.3797C348.201 40.3572 347.039 43.5888 345.805 47.0745C345.224 48.8174 344.57 50.8871 343.844 53.2836C343.118 55.6074 342.391 57.9676 341.665 60.364C341.012 62.7605 340.467 64.8665 340.031 66.682C339.596 68.4975 339.378 69.6958 339.378 70.2767C339.378 70.4946 339.45 70.6035 339.596 70.6035C340.249 70.5309 341.121 70.0589 342.21 69.1874C343.372 68.316 344.57 67.4445 345.805 66.5731C347.039 65.629 348.056 65.157 348.855 65.157C349 65.157 349.181 65.1933 349.399 65.2659C349.617 65.3385 349.726 65.4838 349.726 65.7016C349.726 66.1374 349.218 66.7546 348.201 67.5535C347.184 68.3523 345.95 69.1874 344.497 70.0589C343.118 70.9303 341.81 71.7291 340.576 72.4553C339.414 73.1815 338.615 73.6899 338.179 73.9804C337.453 74.5613 336.654 75.3238 335.783 76.2679C334.984 77.212 334.185 78.0471 333.387 78.7733C332.588 79.4995 331.789 79.8626 330.99 79.8626Z" fill="white"/>
<path d="M298.25 78.0109C297.451 78.0109 296.798 77.7204 296.289 77.1394C295.781 76.5584 295.527 75.5055 295.527 73.9804C295.527 71.8744 295.926 69.369 296.725 66.4642C297.597 63.4868 298.613 60.4367 299.775 57.3141C301.01 54.1188 302.208 51.105 303.37 48.2728C304.604 45.4407 305.621 43.0442 306.42 41.0834C307.291 39.0501 307.727 37.7792 307.727 37.2709C307.727 37.1256 307.691 37.053 307.618 37.053C307.328 37.053 306.674 37.5977 305.657 38.687C301.518 43.3347 298.178 47.5103 295.636 51.214C293.167 54.9176 291.206 58.1855 289.754 61.0177C288.374 63.8499 287.248 66.2101 286.377 68.0982C285.578 69.9137 284.743 71.2935 283.871 72.2375C283.073 73.1816 281.983 73.6536 280.603 73.6536C279.95 73.6536 279.623 73.2905 279.623 72.5643C279.623 71.9107 279.805 71.1845 280.168 70.3857C283.508 61.8165 286.377 53.5378 288.773 45.5496C291.17 37.4887 293.82 29.1011 296.725 20.3866C296.87 19.8783 296.943 19.4789 296.943 19.1884C297.016 18.8979 297.052 18.6438 297.052 18.4259C297.052 18.0628 297.016 17.8086 296.943 17.6634C296.87 17.5181 296.834 17.3003 296.834 17.0098C296.834 16.7193 296.943 16.2473 297.161 15.5937C298.25 12.6163 299.194 10.2924 299.993 8.62215C300.792 6.95189 301.7 5.78996 302.716 5.13638C303.733 4.4828 305.076 4.15601 306.747 4.15601C307.763 4.15601 308.308 4.4828 308.381 5.13638C304.387 13.2699 300.719 21.839 297.379 30.844C294.038 39.7763 291.279 48.2002 289.1 56.1158C289.899 54.8813 290.988 53.211 292.368 51.105C293.748 48.999 295.309 46.7841 297.052 44.4603C298.867 42.1364 300.719 39.9215 302.607 37.8155C304.568 35.7095 306.493 34.0029 308.381 32.6958C310.269 31.3886 312.012 30.735 313.609 30.735C315.134 30.735 315.897 31.2434 315.897 32.2601C315.897 32.9136 315.643 33.6399 315.134 34.4387C313.537 37.053 311.794 40.1031 309.906 43.5888C308.09 47.0746 306.347 50.6693 304.677 54.3729C303.079 58.0766 301.736 61.5987 300.647 64.9392C299.63 68.2797 299.122 71.1482 299.122 73.5447C299.122 74.5614 299.412 75.0697 299.993 75.0697C300.356 75.0697 301.01 74.7429 301.954 74.0894C302.898 73.4358 303.515 73.109 303.806 73.109C304.169 73.109 304.35 73.3268 304.35 73.7626C304.35 74.634 303.66 75.5418 302.281 76.4858C300.973 77.5025 299.63 78.0109 298.25 78.0109Z" fill="white"/>
<path d="M254.578 74.8518C253.997 74.8518 253.525 74.5977 253.162 74.0893C252.799 73.6536 252.617 73.1816 252.617 72.6732C252.617 71.8018 253.017 71.3661 253.815 71.3661C254.687 71.3661 255.994 71.1845 257.737 70.8214C259.552 70.4583 261.404 69.9863 263.292 69.4053C265.253 68.7517 266.923 67.9892 268.303 67.1178C269.683 66.2463 270.373 65.3023 270.373 64.2856C270.373 63.3415 269.828 62.3975 268.739 61.4534C267.722 60.4367 266.451 59.42 264.926 58.4033C263.401 57.3867 261.84 56.3337 260.242 55.2444C258.717 54.1551 257.41 53.0294 256.321 51.8675C255.304 50.633 254.796 49.3258 254.796 47.946C254.796 47.3651 254.868 46.7841 255.014 46.2031C255.232 45.6222 255.595 45.0412 256.103 44.4602C258.282 41.7007 260.642 39.4858 263.183 37.8155C265.798 36.0726 268.231 34.7654 270.482 33.894C272.733 32.9499 274.44 32.26 275.602 31.8243C275.965 31.6791 276.4 31.5701 276.909 31.4975C277.417 31.3523 277.925 31.2797 278.434 31.2797C279.45 31.2797 280.358 31.6065 281.157 32.26C281.956 32.841 282.355 33.9666 282.355 35.6369C282.283 36.3631 281.992 37.3071 281.484 38.4691C280.975 39.5584 280.322 40.684 279.523 41.8459C278.797 43.0078 278.071 43.9882 277.344 44.787C276.618 45.5132 276.001 45.8763 275.493 45.8763C275.202 45.8763 275.057 45.6585 275.057 45.2228C275.057 44.5692 275.238 43.734 275.602 42.7174C276.037 41.7007 276.437 40.7203 276.8 39.7762C277.235 38.7596 277.453 37.9607 277.453 37.3798C277.453 36.2905 276.8 35.7458 275.493 35.7458C274.984 35.7458 274.403 35.8184 273.75 35.9637C273.169 36.0363 272.551 36.1452 271.898 36.2905C271.462 36.3631 270.627 36.6899 269.392 37.2708C268.158 37.7792 266.851 38.4691 265.471 39.3405C264.091 40.212 262.893 41.2286 261.876 42.3906C260.86 43.4799 260.351 44.6781 260.351 45.9853C260.351 46.7841 260.533 47.5103 260.896 48.1639C261.767 49.9068 262.966 51.2866 264.491 52.3032C266.016 53.2473 267.541 54.1187 269.066 54.9176C270.591 55.6438 271.862 56.4789 272.878 57.423C273.968 58.2944 274.512 59.5653 274.512 61.2355C274.512 62.9784 273.786 64.685 272.334 66.3553C270.881 67.9529 269.029 69.4053 266.778 70.7125C264.6 71.947 262.385 72.9274 260.133 73.6536C257.955 74.4524 256.103 74.8518 254.578 74.8518Z" fill="white"/>
<path d="M238.221 76.7037C237.204 76.7037 236.405 76.3406 235.824 75.6143C235.316 74.9608 235.062 73.7625 235.062 72.0196C235.062 69.6232 235.461 66.9362 236.26 63.9588C237.131 60.9814 238.148 57.9313 239.31 54.8086C240.545 51.686 241.779 48.7085 243.014 45.8763C244.248 43.0441 245.229 40.6477 245.955 38.6869C246.318 37.7429 246.499 37.0167 246.499 36.5083C246.499 36.1452 246.39 35.9637 246.173 35.9637C245.809 35.9637 245.011 36.6172 243.776 37.9244C242.759 39.0863 241.343 40.8292 239.528 43.1531C237.785 45.4043 235.897 47.9823 233.863 50.8871C231.83 53.7193 229.869 56.5515 227.981 59.3837C226.093 62.1433 224.532 64.6124 223.297 66.791C222.135 68.9696 221.518 70.4946 221.445 71.3661C221.445 71.6565 221.119 72.0923 220.465 72.6732C219.811 73.2542 219.049 73.7625 218.177 74.1982C217.379 74.634 216.689 74.8518 216.108 74.8518C215.599 74.8518 215.309 74.5977 215.236 74.0893C215.309 74.1619 215.636 73.472 216.217 72.0196C216.798 70.4946 217.488 68.5339 218.286 66.1374C219.158 63.7409 220.029 61.2718 220.901 58.7301C221.772 56.1158 222.571 53.7556 223.297 51.6496C224.023 49.471 224.532 47.9097 224.822 46.9656C225.113 46.0942 225.258 45.4406 225.258 45.0049C225.258 44.6418 225.185 44.3876 225.04 44.2424C224.967 44.0971 224.931 43.8793 224.931 43.5888C224.931 43.2983 225.04 42.8263 225.258 42.1727C226.347 39.1953 227.291 36.8714 228.09 35.2011C228.889 33.5309 229.797 32.369 230.813 31.7154C231.83 31.0618 233.174 30.735 234.844 30.735C235.86 30.735 236.405 31.0618 236.478 31.7154C235.969 32.8047 235.207 34.366 234.19 36.3994C233.246 38.4327 232.193 40.7203 231.031 43.262C229.942 45.8037 228.889 48.3454 227.872 50.8871C226.928 53.4288 226.238 55.7527 225.803 57.8587C226.674 56.4063 227.872 54.5181 229.397 52.1943C230.995 49.7978 232.774 47.2561 234.735 44.5692C236.768 41.8822 238.838 39.3768 240.944 37.053C243.123 34.6565 245.265 32.6957 247.371 31.1707C249.549 29.6457 251.546 28.8832 253.362 28.8832C253.943 28.8832 254.451 28.9921 254.887 29.21C255.323 29.3552 255.541 29.7183 255.541 30.2993C255.541 30.9529 255.286 31.6791 254.778 32.4779C253.035 35.3101 251.256 38.5417 249.44 42.1727C247.698 45.8037 246.064 49.471 244.539 53.1747C243.086 56.8783 241.888 60.3641 240.944 63.632C240.072 66.8999 239.637 69.5869 239.637 71.6928C239.637 73 239.927 73.6536 240.508 73.6536C240.726 73.6536 241.125 73.472 241.706 73.1089C242.287 72.7458 242.868 72.3827 243.449 72.0196C244.103 71.6565 244.539 71.475 244.756 71.475C245.192 71.475 245.41 71.6928 245.41 72.1286C245.41 72.7095 245.011 73.3631 244.212 74.0893C243.486 74.8155 242.578 75.4328 241.489 75.9411C240.399 76.4495 239.31 76.7037 238.221 76.7037Z" fill="white"/>
<path d="M182.982 73.3269C181.239 73.3269 180.367 72.0197 180.367 69.4054C180.367 67.372 180.767 64.8666 181.565 61.8892C182.364 58.8391 183.417 55.6801 184.724 52.4122C186.032 49.1443 187.448 46.0942 188.973 43.262C190.57 40.3572 192.168 37.9971 193.766 36.1816C195.436 34.3661 196.961 33.4583 198.341 33.4583H198.668L199.866 32.5869C200.229 32.1511 200.665 31.8607 201.173 31.7154C201.754 31.5702 202.335 31.4976 202.916 31.4976C204.368 31.4976 205.893 31.788 207.491 32.369C209.089 32.95 210.178 33.2404 210.759 33.2404C211.267 33.2404 211.63 32.95 211.848 32.369C212.139 31.788 212.72 31.4976 213.591 31.4976C214.608 31.4976 215.298 31.7154 215.661 32.1511C216.096 32.5869 216.314 33.1678 216.314 33.894C216.314 34.9107 216.024 36.1089 215.443 37.4887C214.862 38.7959 214.39 39.8852 214.027 40.7566C213.954 41.0471 213.627 41.3013 213.046 41.5192C212.465 41.6644 212.102 41.8823 211.957 42.1727C210.795 45.5133 209.742 48.9264 208.798 52.4122C207.854 55.8254 207.128 58.8028 206.619 61.3445C206.111 63.8862 205.857 65.4475 205.857 66.0285C205.857 67.844 206.365 68.7518 207.382 68.7518C208.253 68.7518 209.197 68.3887 210.214 67.6625C211.231 66.8636 212.211 65.9922 213.155 65.0481C214.172 64.1041 215.007 63.2689 215.661 62.5427C216.314 61.7439 216.677 61.3445 216.75 61.3445C216.895 61.3445 216.968 61.4897 216.968 61.7802C216.968 62.0707 216.859 62.5064 216.641 63.0874C216.423 63.6683 216.169 64.0678 215.879 64.2856C215.152 64.9392 214.027 65.9559 212.502 67.3357C210.977 68.6428 209.343 69.8774 207.6 71.0393C205.857 72.2012 204.332 72.7822 203.025 72.7822C201.5 72.7822 200.592 71.8744 200.301 70.0589C200.301 68.7518 200.519 67.0815 200.955 65.0481C201.391 62.9421 201.863 60.7998 202.371 58.6212C202.952 56.4426 203.46 54.6271 203.896 53.1747C202.807 54.6271 201.391 56.4789 199.648 58.7302C197.978 60.9814 196.126 63.2326 194.092 65.4839C192.132 67.6625 190.171 69.5143 188.21 71.0393C186.249 72.5643 184.507 73.3269 182.982 73.3269ZM186.467 68.2071C187.194 68.2071 188.138 67.7351 189.299 66.791C190.534 65.7743 191.841 64.5035 193.221 62.9785C194.673 61.4534 196.017 59.9284 197.251 58.4034C198.559 56.8784 199.648 55.5349 200.519 54.373C201.463 53.1384 202.044 52.3759 202.262 52.0854C203.424 50.1973 204.55 48.1639 205.639 45.9853C206.801 43.7341 207.745 41.7007 208.471 39.8852C209.197 37.9971 209.561 36.6899 209.561 35.9637C209.561 35.528 209.379 35.3101 209.016 35.3101H208.689C207.963 35.3101 207.2 35.2375 206.402 35.0923C205.675 34.947 204.804 34.8744 203.787 34.8744C202.771 34.8744 201.681 35.0196 200.519 35.3101C199.866 35.4554 198.922 36.3631 197.687 38.0334C196.525 39.631 195.218 41.6644 193.766 44.1335C192.386 46.6026 191.042 49.2532 189.735 52.0854C188.501 54.845 187.448 57.4956 186.576 60.0373C185.777 62.579 185.378 64.685 185.378 66.3553C185.378 67.5898 185.741 68.2071 186.467 68.2071Z" fill="white"/>
<path d="M166.768 78.0109C165.969 78.0109 165.315 77.7204 164.807 77.1394C164.299 76.5584 164.044 75.5055 164.044 73.9804C164.044 71.8744 164.444 69.369 165.243 66.4642C166.114 63.4868 167.131 60.4367 168.293 57.3141C169.527 54.1188 170.726 51.105 171.887 48.2728C173.122 45.4407 174.139 43.0442 174.938 41.0834C175.809 39.0501 176.245 37.7792 176.245 37.2709C176.245 37.1256 176.208 37.053 176.136 37.053C175.845 37.053 175.192 37.5977 174.175 38.687C170.036 43.3347 166.695 47.5103 164.153 51.214C161.684 54.9176 159.724 58.1855 158.271 61.0177C156.891 63.8499 155.766 66.2101 154.894 68.0982C154.095 69.9137 153.26 71.2935 152.389 72.2375C151.59 73.1816 150.501 73.6536 149.121 73.6536C148.467 73.6536 148.141 73.2905 148.141 72.5643C148.141 71.9107 148.322 71.1845 148.685 70.3857C152.026 61.8165 154.894 53.5378 157.291 45.5496C159.687 37.4887 162.338 29.1011 165.243 20.3866C165.388 19.8783 165.461 19.4789 165.461 19.1884C165.533 18.8979 165.57 18.6438 165.57 18.4259C165.57 18.0628 165.533 17.8086 165.461 17.6634C165.388 17.5181 165.352 17.3003 165.352 17.0098C165.352 16.7193 165.461 16.2473 165.678 15.5937C166.768 12.6163 167.712 10.2924 168.511 8.62215C169.309 6.95189 170.217 5.78996 171.234 5.13638C172.251 4.4828 173.594 4.15601 175.264 4.15601C176.281 4.15601 176.826 4.4828 176.898 5.13638C172.904 13.2699 169.237 21.839 165.896 30.844C162.556 39.7763 159.796 48.2002 157.618 56.1158C158.416 54.8813 159.506 53.211 160.885 51.105C162.265 48.999 163.827 46.7841 165.57 44.4603C167.385 42.1364 169.237 39.9215 171.125 37.8155C173.086 35.7095 175.01 34.0029 176.898 32.6958C178.786 31.3886 180.529 30.735 182.127 30.735C183.652 30.735 184.414 31.2434 184.414 32.2601C184.414 32.9136 184.16 33.6399 183.652 34.4387C182.054 37.053 180.311 40.1031 178.423 43.5888C176.608 47.0746 174.865 50.6693 173.195 54.3729C171.597 58.0766 170.254 61.5987 169.164 64.9392C168.148 68.2797 167.639 71.1482 167.639 73.5447C167.639 74.5614 167.93 75.0697 168.511 75.0697C168.874 75.0697 169.527 74.7429 170.471 74.0894C171.415 73.4358 172.033 73.109 172.323 73.109C172.686 73.109 172.868 73.3268 172.868 73.7626C172.868 74.634 172.178 75.5418 170.798 76.4858C169.491 77.5025 168.148 78.0109 166.768 78.0109Z" fill="white"/>
<path d="M126.355 73.8714C123.378 73.8714 121.163 73.1815 119.71 71.8017L119.275 72.7821C119.202 73 118.984 73.1089 118.621 73.1089C118.04 73.1089 117.314 72.7095 116.442 71.9107C115.644 71.0392 115.244 69.9862 115.244 68.7517C115.244 67.6624 116.116 64.9028 117.858 60.473C118.149 59.6741 118.476 59.2384 118.839 59.1658C119.275 59.0932 119.565 58.839 119.71 58.4033C122.542 51.0686 125.556 42.9715 128.752 34.1118C131.947 25.2521 135.142 15.3031 138.337 4.26484C138.41 4.26484 138.7 4.04698 139.209 3.61126C139.79 3.17554 140.443 2.73982 141.17 2.30409C141.896 1.86837 142.513 1.65051 143.021 1.65051C143.748 1.65051 144.111 2.19516 144.111 3.28447C143.82 4.44639 143.167 6.47976 142.15 9.38457C141.133 12.2168 139.935 15.5573 138.555 19.4062C137.175 23.1824 135.723 27.1402 134.198 31.2796C132.673 35.3463 131.184 39.2678 129.732 43.0441C128.279 46.7477 127.009 49.943 125.919 52.63C126.646 51.6133 127.662 50.2335 128.969 48.4906C130.277 46.6751 131.729 44.787 133.327 42.8262C134.997 40.7929 136.667 38.9047 138.337 37.1618C140.08 35.3463 141.714 33.8939 143.239 32.8046C144.764 31.6427 146.035 31.0617 147.052 31.0617C148.504 31.0617 149.23 32.4052 149.23 35.0922V35.8547C149.158 37.0166 148.94 38.4327 148.577 40.103C148.214 41.7006 147.742 43.5524 147.161 45.6584C148.758 44.8596 149.848 44.4602 150.429 44.4602C150.647 44.4602 150.755 44.5328 150.755 44.678C150.755 44.9685 150.283 45.5132 149.339 46.312C148.468 47.0382 147.56 47.5829 146.616 47.946C145.454 51.7222 144.256 55.2443 143.021 58.5122C141.787 61.7075 140.226 64.3581 138.337 66.4641C137.829 67.0451 136.994 67.7713 135.832 68.6427C134.67 69.4416 133.399 70.2404 132.019 71.0392C130.712 71.838 129.514 72.4916 128.425 73C127.408 73.5809 126.718 73.8714 126.355 73.8714ZM125.375 58.6211C127.916 56.5151 130.749 54.5544 133.871 52.7389C137.067 50.8508 139.79 49.3257 142.041 48.1638C142.84 46.0578 143.348 44.206 143.566 42.6084C143.784 40.9381 143.929 39.6309 144.002 38.6869C144.002 37.1618 143.639 36.3993 142.912 36.3993C141.751 36.3993 139.608 38.4327 136.486 42.4994C133.363 46.4936 129.659 51.8675 125.375 58.6211ZM127.118 70.3856C128.86 70.3856 130.494 69.6594 132.019 68.207C133.544 66.682 134.924 64.8302 136.159 62.6516C137.393 60.473 138.41 58.2944 139.209 56.1157C140.08 53.8645 140.734 52.0127 141.17 50.5603C138.192 52.1579 135.178 53.8282 132.128 55.5711C129.151 57.2414 126.646 59.1658 124.612 61.3444C124.031 62.5063 123.523 63.5956 123.087 64.6123C122.651 65.629 122.216 66.5731 121.78 67.4445C123.523 69.4053 125.302 70.3856 127.118 70.3856Z" fill="white"/>
<path d="M97.7049 79.8626C96.7608 79.8626 96.2888 79.4632 96.2888 78.6644C96.2888 77.9382 96.8334 77.1756 97.9227 76.3768C99.012 75.6506 99.8109 74.7066 100.319 73.5446C100.537 72.9637 100.973 71.5839 101.626 69.4053C102.28 67.154 103.006 64.6123 103.805 61.7801C104.676 58.8753 105.439 56.1158 106.093 53.5014C106.819 50.8871 107.363 48.89 107.726 47.5103C106.928 48.7448 105.693 50.4514 104.023 52.63C102.425 54.736 100.61 57.0235 98.5763 59.4926C96.543 61.8891 94.437 64.2129 92.2584 66.4641C90.1524 68.6428 88.1553 70.4583 86.2672 71.9107C84.3791 73.2905 82.7814 73.9804 81.4742 73.9804C80.4576 73.9804 79.9492 73.3268 79.9492 72.0196C79.9492 70.9303 80.3486 69.369 81.1475 67.3356C81.5832 66.3189 82.2368 64.8302 83.1082 62.8694C84.0523 60.9087 84.9963 58.8027 85.9404 56.5515C86.9571 54.2276 87.7922 52.0853 88.4458 50.1246C89.172 48.0912 89.5351 46.5299 89.5351 45.4406C89.5351 44.9322 89.4625 44.6054 89.3172 44.4602C89.172 44.2423 89.0994 43.9519 89.0994 43.5888C89.0994 43.4435 89.0994 43.2983 89.0994 43.153C89.172 42.9352 89.2446 42.681 89.3172 42.3905C90.1161 39.4131 90.8423 37.0892 91.4958 35.419C92.2221 33.7487 93.0935 32.5868 94.1102 31.9332C95.1269 31.2796 96.5066 30.9528 98.2495 30.9528C99.2662 30.9528 99.8835 31.2796 100.101 31.9332C99.8109 32.6594 99.1936 34.1844 98.2495 36.5083C97.3055 38.7595 96.1799 41.4465 94.8727 44.5691C93.6382 47.6192 92.4036 50.6692 91.1691 53.7193C90.0071 56.6967 89.0268 59.311 88.2279 61.5623C87.4291 63.7409 87.0297 65.0844 87.0297 65.5927C87.0297 65.8832 87.1386 66.0284 87.3565 66.0284C87.647 66.0284 88.0101 65.8469 88.4458 65.4838C88.9541 65.1207 89.4625 64.7213 89.9708 64.2855C94.2554 61.0176 97.9591 57.3503 101.082 53.2836C104.204 49.1442 106.891 44.9685 109.143 40.7566C109.215 39.6673 109.469 38.2875 109.905 36.6172C110.413 34.9469 111.249 33.4582 112.41 32.1511C113.572 30.8439 115.097 30.1903 116.986 30.1903C117.784 30.1903 118.22 30.5171 118.293 31.1707C117.93 32.3326 117.167 34.4023 116.005 37.3797C114.916 40.3572 113.754 43.5888 112.519 47.0745C111.938 48.8174 111.285 50.8871 110.559 53.2836C109.832 55.6074 109.106 57.9676 108.38 60.364C107.726 62.7605 107.182 64.8665 106.746 66.682C106.31 68.4975 106.093 69.6958 106.093 70.2767C106.093 70.4946 106.165 70.6035 106.31 70.6035C106.964 70.5309 107.835 70.0589 108.925 69.1874C110.087 68.316 111.285 67.4445 112.519 66.5731C113.754 65.629 114.771 65.157 115.569 65.157C115.715 65.157 115.896 65.1933 116.114 65.2659C116.332 65.3385 116.441 65.4838 116.441 65.7016C116.441 66.1374 115.933 66.7546 114.916 67.5535C113.899 68.3523 112.665 69.1874 111.212 70.0589C109.832 70.9303 108.525 71.7291 107.291 72.4553C106.129 73.1815 105.33 73.6899 104.894 73.9804C104.168 74.5613 103.369 75.3238 102.498 76.2679C101.699 77.212 100.9 78.0471 100.101 78.7733C99.3025 79.4995 98.5037 79.8626 97.7049 79.8626Z" fill="white"/>
<path d="M64.965 78.0109C64.1662 78.0109 63.5126 77.7204 63.0043 77.1394C62.4959 76.5584 62.2417 75.5055 62.2417 73.9804C62.2417 71.8744 62.6411 69.369 63.44 66.4642C64.3114 63.4868 65.3281 60.4367 66.49 57.3141C67.7246 54.1188 68.9228 51.105 70.0847 48.2728C71.3193 45.4407 72.336 43.0442 73.1348 41.0834C74.0062 39.0501 74.4419 37.7792 74.4419 37.2709C74.4419 37.1256 74.4056 37.053 74.333 37.053C74.0425 37.053 73.3889 37.5977 72.3723 38.687C68.2329 43.3347 64.8924 47.5103 62.3507 51.214C59.8816 54.9176 57.9208 58.1855 56.4684 61.0177C55.0886 63.8499 53.963 66.2101 53.0916 68.0982C52.2928 69.9137 51.4576 71.2935 50.5862 72.2375C49.7874 73.1816 48.698 73.6536 47.3183 73.6536C46.6647 73.6536 46.3379 73.2905 46.3379 72.5643C46.3379 71.9107 46.5194 71.1845 46.8825 70.3857C50.2231 61.8165 53.0916 53.5378 55.488 45.5496C57.8845 37.4887 60.5352 29.1011 63.44 20.3866C63.5852 19.8783 63.6578 19.4789 63.6578 19.1884C63.7305 18.8979 63.7668 18.6438 63.7668 18.4259C63.7668 18.0628 63.7305 17.8086 63.6578 17.6634C63.5852 17.5181 63.5489 17.3003 63.5489 17.0098C63.5489 16.7193 63.6578 16.2473 63.8757 15.5937C64.965 12.6163 65.9091 10.2924 66.7079 8.62215C67.5067 6.95189 68.4145 5.78996 69.4311 5.13638C70.4478 4.4828 71.7913 4.15601 73.4616 4.15601C74.4783 4.15601 75.0229 4.4828 75.0955 5.13638C71.1014 13.2699 67.4341 21.839 64.0936 30.844C60.753 39.7763 57.9934 48.2002 55.8148 56.1158C56.6137 54.8813 57.703 53.211 59.0828 51.105C60.4625 48.999 62.0239 46.7841 63.7668 44.4603C65.5823 42.1364 67.4341 39.9215 69.3222 37.8155C71.283 35.7095 73.2074 34.0029 75.0955 32.6958C76.9837 31.3886 78.7265 30.735 80.3242 30.735C81.8492 30.735 82.6117 31.2434 82.6117 32.2601C82.6117 32.9136 82.3576 33.6399 81.8492 34.4387C80.2516 37.053 78.5087 40.1031 76.6206 43.5888C74.805 47.0746 73.0622 50.6693 71.3919 54.3729C69.7942 58.0766 68.4508 61.5987 67.3615 64.9392C66.3448 68.2797 65.8364 71.1482 65.8364 73.5447C65.8364 74.5614 66.1269 75.0697 66.7079 75.0697C67.071 75.0697 67.7246 74.7429 68.6686 74.0894C69.6127 73.4358 70.23 73.109 70.5205 73.109C70.8836 73.109 71.0651 73.3268 71.0651 73.7626C71.0651 74.634 70.3752 75.5418 68.9954 76.4858C67.6883 77.5025 66.3448 78.0109 64.965 78.0109Z" fill="white"/>
<path d="M12.2304 74.8518C8.81724 74.8518 6.23922 74.4524 4.49633 73.6536C2.82607 72.8548 1.70045 71.8744 1.11949 70.7125C0.538528 69.4779 0.248047 68.2797 0.248047 67.1178V66.3553C0.248047 65.7743 0.429598 65.0118 0.792699 64.0677C1.1558 63.051 1.95462 62.5427 3.18917 62.5427C3.77013 62.5427 4.09692 63.0147 4.16954 63.9588C4.24216 64.8302 4.56896 65.7743 5.14992 66.791C6.31184 68.6791 7.80056 69.9137 9.61607 70.4946C11.4316 71.0756 13.7191 71.3661 16.4787 71.3661C18.8752 71.3661 21.4169 70.9667 24.1038 70.1678C26.8634 69.369 29.4414 68.2434 31.8379 66.791C34.2343 65.3386 36.1588 63.5957 37.6112 61.5623C39.1362 59.529 39.8987 57.2414 39.8987 54.6997C39.8987 52.3759 39.0636 50.4514 37.3933 48.9264C35.7957 47.4014 33.6897 46.0579 31.0754 44.896C28.461 43.734 25.7015 42.6447 22.7967 41.6281C19.9645 40.5388 17.2412 39.2679 14.6269 37.8155C12.0125 36.3631 9.87024 34.5839 8.19997 32.4779C6.60232 30.3719 5.8035 27.7213 5.8035 24.526C5.8035 21.4033 6.67494 18.4259 8.41783 15.5937C10.2333 12.7615 12.6661 10.2561 15.7162 8.07748C18.8388 5.82625 22.3246 4.08336 26.1735 2.84881C30.095 1.54164 34.1617 0.888062 38.3737 0.888062C41.4964 0.888062 43.8202 1.46903 45.3453 2.63095C46.8703 3.72026 47.887 5.10004 48.3953 6.77031C48.9763 8.36796 49.2668 10.0019 49.2668 11.6722C49.2668 12.0353 49.1578 12.6526 48.94 13.524C48.7221 14.3954 48.359 15.1943 47.8507 15.9205C47.4149 16.574 46.8703 16.9008 46.2167 16.9008C45.7084 16.9008 45.4542 16.4288 45.4542 15.4847V13.3061C45.4542 9.9656 44.4375 7.75068 42.4041 6.66138C40.4434 5.49946 37.9743 4.9185 34.9969 4.9185C33.0361 4.9185 30.6396 5.2816 27.8075 6.0078C25.0479 6.66138 22.3246 7.71438 19.6377 9.16678C16.9507 10.5466 14.6995 12.2531 12.884 14.2865C11.1411 16.3199 10.2696 18.7163 10.2696 21.4759C10.2696 21.6212 10.2696 21.8027 10.2696 22.0206C10.3423 22.1658 10.3786 22.3111 10.3786 22.4563C10.7417 25.5063 11.831 28.0481 13.6465 30.0814C15.5346 32.0422 17.8222 33.6761 20.5091 34.9833C23.1961 36.2905 25.9919 37.4524 28.8968 38.4691C31.8742 39.4858 34.6338 40.5388 37.1755 41.6281C39.7172 42.7174 41.7869 44.0245 43.3845 45.5495C44.9822 47.002 45.781 48.9264 45.781 51.3229C45.781 54.1551 44.8732 56.9872 43.0577 59.8194C41.2422 62.579 38.7731 65.1207 35.6504 67.4446C32.5278 69.6958 28.9331 71.5113 24.8663 72.8911C20.8722 74.1983 16.6602 74.8518 12.2304 74.8518Z" fill="white"/>
</svg>
